<svg width="640" height="480" >

  <path stroke="#000" id="svg_6" d="m305.14451,50.04889c-2.99458,0 -5.65882,1.35021 -7.90675,3.7994c-2.24603,2.44716 -4.10382,5.95374 -5.64975,10.33309c-3.09144,8.75746 -4.9931,21.05971 -6.03331,35.7928c-1.03815,14.70473 -1.71301,31.82705 -1.2817,50.15615c-36.99032,16.66795 -104.0165,50.11541 -117.54035,58.76691c-13.52385,8.65151 -47.43095,34.32414 -11.69779,26.58068l132.8358,-24.41467c2.60704,35.93186 6.31389,71.52048 9.5441,99.40688c-12.06151,3.87732 -34.57643,11.53321 -39.2238,16.28073c-6.40212,6.54011 -18.31853,30.81921 -6.40208,27.66124l50.47911,-4.50953c1.18889,9.10425 1.93241,14.41653 1.93241,14.41653l0.07376,0.47937l0.3983,0l0.92931,0l0.39829,0l0.07376,-0.47937c0,0 0.74211,-5.31237 1.93241,-14.41653l50.49386,4.50953c11.3748,3.15797 0.00006,-21.12113 -6.4021,-27.66124c-4.6491,-4.74937 -27.18045,-12.42261 -39.23854,-16.29859c3.22354,-27.80083 6.92383,-63.25327 9.52935,-99.06937c40.63013,9.08433 69.65703,11.35118 121.89039,27.25298c52.23336,15.9018 13.84068,-19.50813 -2.18319,-29.73865c-16.02387,-10.23052 -78.16262,-41.23842 -115.60946,-58.12781c0.44742,-18.56667 -0.71696,-35.92232 -1.76699,-50.79525l0,-0.03551c-1.04073,-14.71684 -2.94442,-27.00711 -6.03327,-35.75729c-1.54549,-4.37814 -3.38817,-7.88508 -5.63501,-10.3331c-2.24794,-2.44918 -4.91216,-4.04938 -7.90671,-3.79939l-0.00005,0.25z" fill-opacity="null" stroke-opacity="null" stroke-width="1.5" fill="#fff"/>
  <ellipse ry="4.5" rx="2" id="svg_23" cy="93.4" cx="290.5" stroke-width="1.5" stroke="#000" fill="#84D3DB"/>
  <ellipse rx="0.5" id="svg_24" cy="50.9" cx="657" stroke-width="1.5" stroke="#000" fill="#84D3DB"/>
  <ellipse stroke="#000" ry="4.374857" rx="1.874939" id="svg_29" cy="94.171917" cx="319.564542" stroke-width="1.5" fill="#84D3DB"/>
  <ellipse rx="0.374988" id="svg_30" cy="36.798795" cx="246.316939" stroke-width="1.5" stroke="#000" fill="#84D3DB"/>

</svg>